<?xml version="1.0" standalone="no"?>
<!DOCTYPE svg PUBLIC "-//W3C//DTD SVG 20010904//EN"
 "http://www.w3.org/TR/2001/REC-SVG-20010904/DTD/svg10.dtd">
<svg version="1.0" xmlns="http://www.w3.org/2000/svg"
 width="640.000000pt" height="1280.000000pt" viewBox="0 0 640.000000 1280.000000"
 preserveAspectRatio="xMidYMid meet">
<metadata>
Created by potrace 1.15, written by Peter Selinger 2001-2017
</metadata>
<g transform="translate(0.000000,1280.000000) scale(0.100000,-0.100000)"
fill="#000000" stroke="none">
<path d="M3562 12782 c-29 -11 -70 -33 -90 -49 -34 -27 -94 -105 -104 -134 -3
-8 -16 -10 -41 -5 -22 4 -34 11 -32 19 8 22 -23 49 -66 58 -68 16 -95 -13
-114 -123 -5 -34 -3 -38 27 -54 61 -31 87 -35 106 -13 17 19 38 24 65 14 21
-9 -33 -200 -56 -199 -50 2 -57 5 -57 22 0 32 -37 56 -87 56 -59 1 -84 -29
-91 -109 l-4 -55 43 -20 c55 -25 68 -25 94 0 18 17 26 19 53 9 l31 -10 -32
-92 c-31 -89 -33 -92 -64 -95 -27 -3 -33 0 -33 16 0 32 -36 56 -87 56 -59 1
-84 -29 -91 -109 l-4 -55 43 -20 c56 -25 74 -25 93 1 11 17 20 20 46 14 24 -5
30 -11 25 -25 -33 -106 -62 -181 -68 -181 -4 1 -19 1 -33 1 -14 0 -22 4 -19
10 20 32 -65 80 -118 66 -29 -7 -52 -51 -61 -119 l-7 -47 43 -20 c55 -25 85
-25 98 0 12 23 29 25 53 8 14 -12 13 -21 -14 -106 -24 -73 -34 -92 -46 -88 -8
3 -21 6 -29 6 -7 0 -11 6 -8 13 13 35 -88 83 -125 60 -25 -16 -48 -64 -56
-116 l-6 -47 43 -20 c52 -24 81 -25 98 -5 12 15 51 21 62 10 5 -5 -45 -192
-54 -200 -1 -2 -15 -1 -30 2 -19 4 -28 12 -28 24 0 41 -103 74 -135 43 -26
-26 -45 -78 -45 -123 0 -38 1 -39 56 -62 l57 -23 18 22 c18 23 44 28 67 14 10
-7 7 -26 -12 -93 -51 -179 -48 -193 62 -277 l77 -59 -3 -459 c-3 -474 -14
-1143 -32 -1934 -18 -778 -40 -1700 -50 -2055 -5 -187 -12 -459 -16 -605 l-7
-265 -28 -42 c-114 -166 -324 -188 -541 -57 -80 48 -196 165 -226 226 -29 59
-58 227 -72 416 -12 154 -22 205 -48 235 -15 16 -14 17 2 11 14 -5 16 -2 10
19 -5 22 -2 29 20 38 37 17 34 52 -7 83 -19 15 -41 26 -49 26 -22 0 -41 -27
-34 -45 4 -11 -4 -22 -23 -33 -24 -13 -26 -18 -15 -27 10 -7 -2 -10 -44 -11
-45 0 -69 -6 -104 -27 -108 -63 -218 -235 -265 -415 -19 -75 -26 -131 -30
-249 -10 -273 24 -477 147 -898 45 -154 96 -325 112 -380 87 -298 91 -595 11
-850 -30 -95 -75 -208 -173 -440 -308 -722 -389 -1043 -377 -1485 4 -145 9
-192 30 -272 48 -184 126 -308 295 -470 204 -195 438 -319 717 -382 169 -38
537 -82 773 -92 138 -6 154 -9 167 -27 13 -18 13 -23 0 -37 -33 -36 -3 -70 60
-70 35 0 47 5 56 21 9 17 8 25 -4 37 -14 13 -14 18 -1 44 l15 28 332 0 c349 0
496 11 685 50 341 71 611 237 796 490 125 170 184 355 206 646 23 297 -26 592
-153 924 -51 131 -222 521 -302 685 -91 187 -125 324 -125 500 0 167 44 343
125 505 63 126 164 470 186 636 23 176 -13 402 -89 550 -24 48 -91 110 -138
130 -79 33 -183 3 -234 -67 -18 -25 -34 -68 -45 -117 -52 -242 -101 -370 -168
-439 -95 -97 -236 -153 -392 -153 -138 0 -245 35 -316 102 l-36 34 -6 1264
c-18 3450 -20 4714 -7 4790 21 128 87 216 236 314 l79 51 3 70 c4 80 -14 185
-93 545 -29 135 -57 261 -61 280 -11 54 -5 129 12 154 8 13 41 38 73 55 137
73 204 220 176 384 -24 140 -64 194 -183 250 -82 38 -166 45 -240 19z"/>
</g>
</svg>
